<svg xmlns="http://www.w3.org/2000/svg" viewBox="0 0 120 100">
  <!-- Book base -->
  <path d="M15 75 L15 30 Q15 25 20 25 L100 25 Q105 25 105 30 L105 75 Q105 80 100 80 L20 80 Q15 80 15 75 Z" 
        fill="white" stroke="#6b7280" stroke-width="2"/>
  
  <!-- Book spine -->
  <line x1="60" y1="25" x2="60" y2="80" stroke="#6b7280" stroke-width="2"/>
  
  <!-- Left page content lines -->
  <line x1="22" y1="32" x2="55" y2="32" stroke="#84cc16" stroke-width="1.5"/>
  <line x1="22" y1="37" x2="55" y2="37" stroke="#84cc16" stroke-width="1.5"/>
  <line x1="22" y1="42" x2="55" y2="42" stroke="#84cc16" stroke-width="1.5"/>
  <line x1="22" y1="47" x2="55" y2="47" stroke="#84cc16" stroke-width="1.5"/>
  <line x1="22" y1="52" x2="55" y2="52" stroke="#84cc16" stroke-width="1.5"/>
  <line x1="22" y1="57" x2="55" y2="57" stroke="#84cc16" stroke-width="1.5"/>
  <line x1="22" y1="62" x2="55" y2="62" stroke="#84cc16" stroke-width="1.5"/>
  <line x1="22" y1="67" x2="55" y2="67" stroke="#84cc16" stroke-width="1.5"/>
  <line x1="22" y1="72" x2="55" y2="72" stroke="#84cc16" stroke-width="1.5"/>
  
  <!-- Right page content lines -->
  <line x1="65" y1="32" x2="98" y2="32" stroke="#84cc16" stroke-width="1.5"/>
  <line x1="65" y1="37" x2="98" y2="37" stroke="#84cc16" stroke-width="1.5"/>
  <line x1="65" y1="42" x2="98" y2="42" stroke="#84cc16" stroke-width="1.5"/>
  <line x1="65" y1="47" x2="98" y2="47" stroke="#84cc16" stroke-width="1.5"/>
  <line x1="65" y1="52" x2="98" y2="52" stroke="#84cc16" stroke-width="1.5"/>
  <line x1="65" y1="57" x2="98" y2="57" stroke="#84cc16" stroke-width="1.5"/>
  <line x1="65" y1="62" x2="98" y2="62" stroke="#84cc16" stroke-width="1.5"/>
  <line x1="65" y1="67" x2="98" y2="67" stroke="#84cc16" stroke-width="1.5"/>
  <line x1="65" y1="72" x2="98" y2="72" stroke="#84cc16" stroke-width="1.5"/>
  
  <!-- Speech bubbles above book -->
  <!-- Left bubble with exclamation -->
  <ellipse cx="35" cy="15" rx="8" ry="6" fill="white" stroke="#6b7280" stroke-width="1.5"/>
  <path d="M35 11 L35 16 M35 18 L35 19" stroke="#84cc16" stroke-width="2" stroke-linecap="round"/>
  
  <!-- Right bubble with question mark -->
  <ellipse cx="85" cy="15" rx="8" ry="6" fill="white" stroke="#6b7280" stroke-width="1.5"/>
  <path d="M82 12 Q82 10 84 10 Q86 10 86 12 Q86 13 85 14 L85 15 M85 17 L85 18" 
        stroke="#84cc16" stroke-width="1.8" stroke-linecap="round" fill="none"/>
  
  <!-- Magnifying glass -->
  <circle cx="90" cy="65" r="10" fill="white" stroke="#6b7280" stroke-width="2.5"/>
  <circle cx="90" cy="65" r="7" fill="none" stroke="#6b7280" stroke-width="1"/>
  
  <!-- Check mark inside magnifying glass -->
  <path d="M86 65 L89 68 L94 62" fill="none" stroke="#84cc16" stroke-width="2.5" 
        stroke-linecap="round" stroke-linejoin="round"/>
  
  <!-- Magnifying glass handle -->
  <line x1="98" y1="73" x2="105" y2="80" stroke="#6b7280" stroke-width="3" stroke-linecap="round"/>
</svg> 